<?xml version="1.0" encoding="utf-8"?>
<!-- Generator: Adobe Illustrator 22.0.1, SVG Export Plug-In . SVG Version: 6.00 Build 0)  -->
<svg version="1.1" xmlns="http://www.w3.org/2000/svg" xmlns:xlink="http://www.w3.org/1999/xlink" x="0px" y="0px"
	 viewBox="0 0 218 48" style="enable-background:new 0 0 218 48;" xml:space="preserve">
<style type="text/css">
	.st0{display:none;}
	.st1{display:inline;}
	.st2{fill:#FF4400;}
	.st3{fill:#51504F;}
	.st4{fill:#FFFFFF;}
	.st5{fill:#424242;}
	.st6{fill:#636362;}
	.st7{fill:#666261;}
	.st8{fill:#474747;}
	.st9{display:inline;fill:#424242;}
</style>
<g id="Layer_1" xmlns:figma="http://www.figma.com/figma/ns" class="st0">
	<title>Logo</title>
	<g transform="translate(-1470)" figma:type="canvas" class="st1">
		<g transform="translate(1470)" figma:type="vector">
			<g>
				<path id="r" class="st2" d="M77.2,35.2c0.3,0.3,0.1,0.8-0.4,0.8H71c-0.3,0-0.6-0.1-0.7-0.3l-9.4-10.5v10.4
					c0,0.3-0.2,0.5-0.5,0.5H55c-0.3,0-0.5-0.2-0.5-0.5v-23c0-0.3,0.2-0.5,0.5-0.5h5.3c0.3,0,0.5,0.2,0.5,0.5v9.8l9.1-10
					c0.2-0.2,0.5-0.3,0.7-0.3h5.8c0.4,0,0.7,0.5,0.4,0.8l-9.9,10.6L77.2,35.2L77.2,35.2z"/>
			</g>
			<g>
				<path id="c" class="st2" d="M100.5,36c-0.2,0-0.4-0.1-0.5-0.3L98,31H87.3l-2,4.7c-0.1,0.2-0.3,0.3-0.5,0.3h-5.2
					c-0.4,0-0.6-0.4-0.5-0.7l10.8-23c0.1-0.2,0.3-0.3,0.5-0.3h4.4c0.2,0,0.4,0.1,0.5,0.3l10.8,23c0.2,0.3-0.1,0.7-0.5,0.7
					C105.6,36,100.5,36,100.5,36z M89.4,26.3H96l-3.3-7.7L89.4,26.3L89.4,26.3z"/>
			</g>
			<g>
				<path id="d" class="st2" d="M110,36c-0.3,0-0.5-0.2-0.5-0.5v-23c0-0.3,0.2-0.5,0.5-0.5h5.3c0.3,0,0.5,0.2,0.5,0.5v18.4h9.8
					c0.3,0,0.5,0.2,0.5,0.5v4.1c0,0.3-0.2,0.5-0.5,0.5H110z"/>
			</g>
			<g>
				<path id="e" class="st2" d="M129.8,12.5c0-0.3,0.2-0.5,0.5-0.5h9.3c2.7,0,5,0.5,6.9,1.4c1.9,1,3.4,2.3,4.4,4.2
					c1,1.8,1.5,3.9,1.5,6.4c0,2.5-0.5,4.7-1.5,6.5c-1,1.8-2.5,3.2-4.4,4.1c-1.9,1-4.2,1.4-6.9,1.4h-9.3c-0.3,0-0.5-0.2-0.5-0.5V12.5
					z M139.1,31c2.4,0,4.1-0.6,5.3-1.7c1.2-1.2,1.7-2.9,1.7-5.2c0-2.3-0.6-4.1-1.7-5.2c-1.2-1.2-2.9-1.7-5.3-1.7h-3.1V31H139.1z"/>
			</g>
			<g>
				<path id="f" class="st2" d="M157.4,36c-0.3,0-0.5-0.2-0.5-0.5v-23c0-0.3,0.2-0.5,0.5-0.5h5.3c0.3,0,0.5,0.2,0.5,0.5v23
					c0,0.3-0.2,0.5-0.5,0.5H157.4z"/>
			</g>
		</g>
	</g>
</g>
<g id="Layer_2">
	<g>
		<g>
			<g>
				<path class="st3" d="M38.2,8.2c0.3-0.1,0.5-0.1,0.5-0.1c0,0-0.2-0.2-0.3-0.4L33,1.5c-0.2-0.2-0.6-0.4-0.9-0.3L24,2.8
					c-0.3,0.1-0.5,0.1-0.5,0.1c0,0,0,0,0,0c0,0,0.2,0.2,0.3,0.4l5.5,6.2c0.2,0.2,0.3,0.6,0.2,0.9l-2.6,7.8c-0.1,0.3-0.2,0.5-0.2,0.5
					c0,0,0,0,0,0s0.1-0.2,0.2-0.5l2.6-7.8c0.1-0.3,0.4-0.6,0.7-0.6L38.2,8.2z"/>
			</g>
			<g>
				<path class="st4" d="M26.7,18.9c-0.1,0-0.1,0-0.2-0.1c0,0,0-0.3,0.1-0.6l2.6-7.8c0.1-0.3,0-0.7-0.2-0.9l-5.5-6.2
					C23.4,3.2,23.3,3,23.3,3c0,0,0-0.1-0.1-0.1c0,0,0-0.1,0.1-0.1c0.1,0,0.4-0.1,0.7-0.1L32.1,1C32.4,1,32.8,1.1,33,1.3l5.6,6.3
					c0.2,0.2,0.3,0.4,0.3,0.5s-0.1,0.1-0.1,0.1c0,0-0.3,0.1-0.6,0.1l-8,1.6c-0.3,0.1-0.6,0.3-0.7,0.6L27,18.4
					C26.9,18.7,26.8,18.9,26.7,18.9z M24.3,3C24,3,23.9,3.2,24.1,3.5l5.2,5.9c0.2,0.2,0.6,0.4,0.9,0.3L38,8.1
					c0.3-0.1,0.4-0.3,0.2-0.5l-5.2-5.9c-0.2-0.2-0.6-0.4-0.9-0.3L24.3,3z"/>
			</g>
		</g>
		<g>
			<g>
				<path class="st3" d="M23.8,3.4c-0.2-0.2-0.4-0.2-0.5,0.1l-2.6,7.8c-0.1,0.3-0.2,0.5-0.2,0.5c0,0,0.2,0.2,0.3,0.4l5.5,6.2
					c0.2,0.2,0.4,0.2,0.5-0.1l2.6-7.8c0.1-0.3,0-0.7-0.2-0.9L23.8,3.4z"/>
			</g>
			<g>
				<path class="st4" d="M26.9,18.6c-0.1,0.3-0.3,0.3-0.5,0.1l-5.9-6.6c-0.2-0.2-0.3-0.4-0.3-0.4c0.1,0,0.2-0.2,0.3-0.5l2.7-8
					c0.1-0.3,0.3-0.3,0.5-0.1l5.7,6.5c0.2,0.2,0.3,0.6,0.2,0.9L26.9,18.6z M20.9,11.3c-0.1,0.3,0,0.7,0.2,0.9l5.2,5.9
					c0.2,0.2,0.4,0.2,0.5-0.1l2.5-7.4c0.1-0.3,0-0.7-0.2-0.9l-5.2-5.9c-0.2-0.2-0.4-0.2-0.5,0.1L20.9,11.3z"/>
			</g>
		</g>
		<g>
			<g>
				<path class="st3" d="M38.6,8.6c0.1-0.3-0.1-0.5-0.4-0.4l-8.1,1.6c-0.3,0.1-0.6,0.3-0.7,0.6l-2.6,7.8c-0.1,0.3,0.1,0.5,0.4,0.4
					l8.1-1.6c0.3-0.1,0.6-0.3,0.7-0.6L38.6,8.6z"/>
			</g>
			<g>
				<path class="st4" d="M27,18.9c-0.3,0.1-0.4-0.1-0.4-0.4l2.7-8.2c0.1-0.3,0.4-0.6,0.7-0.6L38.5,8c0.3-0.1,0.4,0.1,0.4,0.4
					l-2.7,8.2c-0.1,0.3-0.4,0.6-0.7,0.6L27,18.9z M30.3,10c-0.3,0.1-0.6,0.3-0.7,0.6L27.1,18c-0.1,0.3,0.1,0.5,0.4,0.4l7.7-1.6
					c0.3-0.1,0.6-0.3,0.7-0.6l2.5-7.4c0.1-0.3-0.1-0.5-0.4-0.4L30.3,10z"/>
			</g>
		</g>
	</g>
	<g>
		<g>
			<g>
				<path class="st5" d="M1.9,23.9c0,0,0.2,0.1,0.5,0.3L14,30.8c0.3,0.1,0.7,0.1,0.9,0l11.6-6.7c0.3-0.1,0.5-0.3,0.5-0.3s0,0,0,0
					c0,0,0,0,0,0c0,0-0.2-0.1-0.5-0.3l-11.7-6.7c-0.3-0.1-0.7-0.1-0.9,0L2.3,23.6C2.1,23.7,1.9,23.8,1.9,23.9
					C1.9,23.8,1.9,23.8,1.9,23.9z"/>
			</g>
			<g>
				<path class="st4" d="M14.9,31.1c-0.3,0.1-0.7,0.1-0.9,0L2.1,24.3C1.8,24.2,1.6,24,1.6,24S1.6,24,1.5,23.9c-0.1,0,0-0.1,0.1-0.2
					c0.1-0.1,0.4-0.2,0.7-0.4L14,16.5c0.3-0.1,0.7-0.1,0.9,0l12.2,7c0.3,0.1,0.4,0.3,0.3,0.3c-0.1,0-0.1,0.2-0.1,0.2
					c0,0.1-0.1,0.1-0.1,0.1c-0.1,0-0.3,0-0.6,0.2L14.9,31.1z M2.8,23.6c-0.3,0.1-0.3,0.4,0,0.5L14,30.5c0.3,0.1,0.7,0.1,0.9,0
					L26,24.1c0.3-0.1,0.3-0.4,0-0.5l-11.2-6.4c-0.3-0.1-0.7-0.1-0.9,0L2.8,23.6z"/>
			</g>
		</g>
		<g>
			<g>
				<path class="st5" d="M14.4,31.1c0,0-0.2-0.1-0.5-0.3L2.4,24.2c-0.3-0.1-0.5,0-0.5,0.3l0,13.4c0,0.3,0,0.5,0,0.5
					c0,0,0.2,0.1,0.5,0.3L14,45.3c0.3,0.1,0.5,0,0.5-0.3l0-13.4C14.4,31.3,14.4,31.1,14.4,31.1z"/>
			</g>
			<g>
				<path class="st4" d="M14.7,45.5c0,0.3-0.2,0.4-0.5,0.3L1.8,38.6c-0.3-0.1-0.4-0.3-0.3-0.3c0.1,0,0.1-0.3,0.1-0.6l0-13.7
					c0-0.3,0.2-0.4,0.5-0.3l12.4,7.1c0.3,0.1,0.4,0.3,0.3,0.3c-0.1,0-0.1,0.3-0.1,0.6L14.7,45.5z M2.2,37.7c0,0.3,0.2,0.7,0.5,0.8
					l11.1,6.4c0.3,0.1,0.5,0,0.5-0.3l0-12.8c0-0.3-0.2-0.7-0.5-0.8L2.6,24.6c-0.3-0.1-0.5,0-0.5,0.3L2.2,37.7z"/>
			</g>
		</g>
		<g>
			<g>
				<path class="st6" d="M27,24.4c0-0.3,0-0.5,0-0.5s-0.2,0.1-0.5,0.3l-11.6,6.7c-0.3,0.1-0.5,0.3-0.5,0.3c0,0,0,0.2,0,0.5l0,13.4
					c0,0.3,0,0.5,0,0.5c0,0,0.2-0.1,0.5-0.3l11.6-6.7c0.3-0.1,0.5-0.3,0.5-0.3c0,0,0-0.2,0-0.5L27,24.4z"/>
			</g>
			<g>
				<path class="st4" d="M14.9,45.6c-0.3,0.1-0.5,0.2-0.6,0.2c-0.1,0-0.1-0.3-0.1-0.6l0-13.4c0-0.3-0.1-0.6-0.1-0.6s0-0.1,0.1-0.2
					s0.4-0.2,0.7-0.4l11.8-6.8c0.3-0.1,0.5-0.2,0.6-0.2c0.1,0,0.1,0.1,0.1,0.2c0,0,0,0.3,0,0.6l0,13.3c0,0.3,0.1,0.6,0.1,0.6
					c0.1,0,0,0.1-0.1,0.2c-0.1,0.1-0.4,0.2-0.7,0.4L14.9,45.6z M15.2,31c-0.3,0.1-0.5,0.5-0.5,0.8l0,12.8c0,0.3,0.2,0.4,0.5,0.3
					l11.1-6.4c0.3-0.1,0.5-0.5,0.5-0.8l0-12.8c0-0.3-0.2-0.4-0.5-0.3L15.2,31z"/>
			</g>
		</g>
		<g>
			<g>
				<path class="st6" d="M14.5,45.6C14.5,45.6,14.5,45.6,14.5,45.6C14.5,45.6,14.5,45.6,14.5,45.6C14.5,45.6,14.5,45.6,14.5,45.6
					C14.5,45.6,14.5,45.6,14.5,45.6C14.5,45.6,14.5,45.6,14.5,45.6z"/>
			</g>
			<g>
				<path class="st4" d="M14.6,45.9c0,0-0.1,0-0.2,0c-0.1,0-0.1-0.2-0.1-0.4s0.1-0.3,0.3-0.2s0.3,0.2,0.3,0.3s0,0.2-0.1,0.2
					C14.6,45.8,14.6,45.9,14.6,45.9z"/>
			</g>
		</g>
		<g>
			<g>
				<path class="st6" d="M14.4,31.1C14.4,31.1,14.4,31.1,14.4,31.1c0,0,0,0.2,0,0.5l0,13.4c0,0.3,0,0.5,0,0.5c0,0,0-0.2,0-0.5
					l0-13.4C14.5,31.3,14.5,31.1,14.4,31.1z"/>
			</g>
			<g>
				<path class="st4" d="M14.8,45.5c0,0.3-0.1,0.5-0.3,0.4c-0.2-0.1-0.3-0.4-0.3-0.7l0-13.7c0-0.3,0.1-0.6,0.1-0.6
					c0.1,0,0.2,0,0.3,0c0.1,0,0.1,0.1,0.1,0.2s0,0.3,0,0.6L14.8,45.5z"/>
			</g>
		</g>
	</g>
	<g>
		<g>
			<g>
				<path class="st3" d="M30,24.3c0,0,0.2,0.1,0.5,0.3l7.1,3.5c0.3,0.1,0.7,0.1,0.9-0.1l6.6-4.4c0.2-0.2,0.4-0.3,0.4-0.3s0,0,0,0
					c0,0,0,0,0,0s-0.2-0.1-0.5-0.2l-7.1-3.5c-0.3-0.1-0.7-0.1-0.9,0.1L30.4,24C30.2,24.2,30,24.3,30,24.3C30,24.3,30,24.3,30,24.3z"
					/>
			</g>
			<g>
				<path class="st4" d="M38.4,28.2c-0.2,0.2-0.7,0.2-0.9,0.1l-7.2-3.6c-0.3-0.1-0.5-0.2-0.5-0.3c0,0,0,0-0.1-0.1c0,0,0-0.1,0-0.1
					s0.3-0.2,0.6-0.4l6.7-4.4c0.2-0.2,0.7-0.2,0.9-0.1l7.4,3.7c0.3,0.1,0.4,0.3,0.4,0.3c0,0-0.1,0.1-0.1,0.1s0,0.1-0.1,0.1
					c0,0-0.3,0.1-0.5,0.3L38.4,28.2z M30.7,24c-0.2,0.2-0.2,0.4,0,0.5l6.8,3.3c0.3,0.1,0.7,0.1,0.9-0.1l6.3-4.2
					c0.2-0.2,0.2-0.4,0-0.5l-6.8-3.3c-0.3-0.1-0.7-0.1-0.9,0.1L30.7,24z"/>
			</g>
		</g>
		<g>
			<g>
				<path class="st3" d="M38,28.3c0,0-0.2-0.1-0.5-0.2l-7.1-3.5c-0.3-0.1-0.5,0-0.4,0.3l0.5,7.9c0,0.3,0,0.5,0,0.5s0.2,0.1,0.5,0.2
					l7.1,3.5c0.3,0.1,0.5,0,0.4-0.3L38,28.8C38,28.5,38,28.3,38,28.3z"/>
			</g>
			<g>
				<path class="st4" d="M38.7,37c0,0.3-0.2,0.4-0.4,0.3l-7.6-3.7c-0.3-0.1-0.4-0.3-0.4-0.3c0,0,0.1-0.3,0.1-0.6l-0.5-8
					c0-0.3,0.2-0.4,0.4-0.3l7.6,3.7c0.3,0.1,0.4,0.3,0.4,0.3c0,0-0.1,0.3,0,0.6L38.7,37z M30.7,32.6c0,0.3,0.2,0.6,0.5,0.8l6.7,3.3
					c0.3,0.1,0.5,0,0.4-0.3l-0.5-7.5c0-0.3-0.2-0.6-0.5-0.8l-6.7-3.3c-0.3-0.1-0.5,0-0.4,0.3L30.7,32.6z"/>
			</g>
		</g>
		<g>
			<g>
				<path class="st7" d="M45.5,23.9c0-0.3,0-0.5,0-0.5s-0.2,0.1-0.4,0.3L38.4,28c-0.2,0.2-0.4,0.3-0.4,0.3c0,0,0,0.2,0,0.5l0.5,7.9
					c0,0.3,0,0.5,0,0.5c0,0,0.2-0.1,0.4-0.3l6.6-4.4c0.2-0.2,0.4-0.3,0.4-0.3s0-0.2,0-0.5L45.5,23.9z"/>
			</g>
			<g>
				<path class="st4" d="M39,37.1c-0.2,0.2-0.5,0.3-0.5,0.3c0,0-0.1-0.3-0.1-0.6l-0.5-7.9c0-0.3-0.1-0.6-0.1-0.6c0,0,0-0.1,0-0.1
					s0.3-0.2,0.6-0.4l6.7-4.4c0.2-0.2,0.5-0.3,0.5-0.3s0.1,0.1,0.1,0.1s0,0.3,0,0.6l0.5,7.8c0,0.3,0.1,0.6,0.1,0.6c0,0,0,0.1,0,0.1
					s-0.3,0.2-0.6,0.4L39,37.1z M38.6,28.1c-0.2,0.2-0.4,0.5-0.4,0.8l0.5,7.5c0,0.3,0.2,0.4,0.5,0.2l6.3-4.2
					c0.2-0.2,0.4-0.5,0.4-0.8l-0.5-7.5c0-0.3-0.2-0.4-0.5-0.2L38.6,28.1z"/>
			</g>
		</g>
		<g>
			<g>
				<path class="st7" d="M38.6,37.2C38.6,37.2,38.6,37.2,38.6,37.2C38.5,37.2,38.5,37.2,38.6,37.2C38.5,37.2,38.5,37.3,38.6,37.2
					C38.5,37.3,38.6,37.3,38.6,37.2C38.6,37.3,38.6,37.3,38.6,37.2z"/>
			</g>
			<g>
				<path class="st4" d="M38.6,37.4c0,0-0.1,0-0.1,0c-0.1,0-0.1-0.1-0.1-0.2s0.1-0.2,0.2-0.1c0.1,0,0.2,0.1,0.2,0.2
					C38.7,37.3,38.7,37.3,38.6,37.4C38.7,37.4,38.6,37.4,38.6,37.4z"/>
			</g>
		</g>
		<g>
			<g>
				<path class="st7" d="M38,28.3C38,28.3,38,28.3,38,28.3c0,0,0,0.2,0,0.5l0.5,7.9c0,0.3,0,0.5,0,0.5s0-0.2,0-0.5L38,28.8
					C38,28.5,38,28.3,38,28.3z"/>
			</g>
			<g>
				<path class="st4" d="M38.7,37c0,0.3,0,0.5-0.1,0.4s-0.2-0.3-0.2-0.6l-0.5-8c0-0.3,0-0.6,0-0.6s0.1,0,0.2,0c0,0,0.1,0.1,0.1,0.1
					s0,0.3,0,0.6L38.7,37z"/>
			</g>
		</g>
	</g>
	<g>
		<path class="st8" d="M63.9,20.6c0.8,0,1.4-0.2,2-0.7c0.5-0.4,0.8-1.1,0.8-1.9c0-0.6-0.2-1.2-0.7-1.6c-0.4-0.5-1-0.7-1.8-0.7
			c-0.5,0-0.9,0.1-1.2,0.2c-0.3,0.1-0.6,0.3-0.8,0.6c-0.2,0.2-0.4,0.5-0.5,0.9c-0.2,0.4-0.3,0.7-0.5,1c-0.1,0.2-0.2,0.3-0.4,0.4
			c-0.2,0.1-0.5,0.1-0.7,0.1c-0.3,0-0.6-0.1-0.9-0.4s-0.4-0.6-0.4-1.1c0-0.4,0.1-0.9,0.4-1.4c0.3-0.5,0.6-0.9,1.1-1.4
			c0.5-0.4,1.1-0.8,1.9-1c0.7-0.3,1.6-0.4,2.5-0.4c0.8,0,1.5,0.1,2.2,0.3c0.7,0.2,1.2,0.5,1.7,0.9c0.5,0.4,0.9,0.9,1.1,1.4
			c0.2,0.5,0.4,1.1,0.4,1.8c0,0.8-0.2,1.5-0.5,2.1c-0.4,0.6-0.9,1.2-1.5,1.7c0.6,0.3,1.2,0.7,1.6,1.2c0.4,0.4,0.8,0.9,1,1.5
			c0.2,0.5,0.3,1.1,0.3,1.7c0,0.7-0.2,1.5-0.5,2.2c-0.3,0.7-0.7,1.3-1.3,1.9c-0.6,0.5-1.3,1-2.1,1.3c-0.8,0.3-1.7,0.5-2.7,0.5
			c-1,0-1.9-0.2-2.7-0.5c-0.8-0.4-1.4-0.8-1.9-1.3c-0.5-0.5-0.9-1.1-1.1-1.6c-0.3-0.6-0.4-1-0.4-1.4c0-0.5,0.2-0.9,0.5-1.2
			c0.3-0.3,0.7-0.4,1.2-0.4c0.2,0,0.5,0.1,0.7,0.2c0.2,0.1,0.4,0.3,0.4,0.5c0.4,1.1,0.9,2,1.4,2.6c0.5,0.6,1.2,0.8,2.1,0.8
			c0.5,0,1-0.1,1.5-0.4c0.5-0.3,0.9-0.6,1.2-1.1c0.3-0.5,0.5-1.1,0.5-1.7c0-1-0.3-1.7-0.8-2.3c-0.5-0.5-1.3-0.8-2.2-0.8
			c-0.2,0-0.4,0-0.8,0c-0.3,0-0.6,0-0.7,0c-0.5,0-0.8-0.1-1-0.3c-0.2-0.2-0.4-0.5-0.4-0.9c0-0.4,0.1-0.7,0.4-1
			c0.3-0.2,0.7-0.4,1.3-0.4H63.9z"/>
		<path class="st8" d="M78.2,13.5h4.8c1.2,0,2.3,0.1,3.2,0.3c0.9,0.2,1.7,0.7,2.4,1.3c1.9,1.6,2.8,4.1,2.8,7.4c0,1.1-0.1,2.1-0.3,3
			c-0.2,0.9-0.5,1.7-0.9,2.4s-0.9,1.4-1.5,1.9c-0.5,0.4-1,0.8-1.6,1c-0.6,0.3-1.2,0.4-1.9,0.6c-0.7,0.1-1.4,0.2-2.2,0.2h-4.8
			c-0.7,0-1.2-0.1-1.5-0.3c-0.3-0.2-0.6-0.5-0.7-0.9C76,30,75.9,29.6,75.9,29V15.7c0-0.8,0.2-1.4,0.5-1.7
			C76.8,13.6,77.4,13.5,78.2,13.5z M79.6,16.4v12.3h2.8c0.6,0,1.1,0,1.4,0c0.3,0,0.7-0.1,1.1-0.2s0.7-0.3,1-0.6
			c1.2-1,1.8-2.8,1.8-5.4c0-1.8-0.3-3.1-0.8-4c-0.5-0.9-1.2-1.5-2-1.7c-0.8-0.2-1.7-0.4-2.9-0.4H79.6z"/>
		<path class="st8" d="M107,13.5h4.8c1.2,0,2.3,0.1,3.2,0.3c0.9,0.2,1.7,0.7,2.4,1.3c1.9,1.6,2.8,4.1,2.8,7.4c0,1.1-0.1,2.1-0.3,3
			c-0.2,0.9-0.5,1.7-0.9,2.4s-0.9,1.4-1.5,1.9c-0.5,0.4-1,0.8-1.6,1c-0.6,0.3-1.2,0.4-1.9,0.6c-0.7,0.1-1.4,0.2-2.2,0.2h-4.8
			c-0.7,0-1.2-0.1-1.5-0.3c-0.3-0.2-0.6-0.5-0.7-0.9c-0.1-0.4-0.2-0.8-0.2-1.4V15.7c0-0.8,0.2-1.4,0.5-1.7
			C105.6,13.6,106.2,13.5,107,13.5z M108.4,16.4v12.3h2.8c0.6,0,1.1,0,1.4,0c0.3,0,0.7-0.1,1.1-0.2c0.4-0.1,0.7-0.3,1-0.6
			c1.2-1,1.8-2.8,1.8-5.4c0-1.8-0.3-3.1-0.8-4c-0.5-0.9-1.2-1.5-2-1.7c-0.8-0.2-1.7-0.4-2.9-0.4H108.4z"/>
		<path class="st8" d="M125.5,29.6V15.4c0-0.7,0.2-1.3,0.5-1.7c0.3-0.4,0.8-0.6,1.3-0.6c0.6,0,1,0.2,1.3,0.5
			c0.3,0.4,0.5,0.9,0.5,1.7v14.3c0,0.7-0.2,1.3-0.5,1.7c-0.3,0.4-0.8,0.6-1.3,0.6c-0.5,0-1-0.2-1.3-0.6S125.5,30.4,125.5,29.6z"/>
		<path class="st8" d="M151.7,24.2v3.5c0,0.5,0,0.8-0.1,1.1c-0.1,0.3-0.3,0.5-0.5,0.7c-0.2,0.2-0.6,0.4-0.9,0.6
			c-1.1,0.6-2.1,1-3.2,1.3c-1,0.3-2.1,0.4-3.3,0.4c-1.4,0-2.7-0.2-3.8-0.6c-1.1-0.4-2.1-1-2.9-1.9c-0.8-0.8-1.4-1.8-1.9-3
			c-0.4-1.2-0.6-2.5-0.6-3.9c0-1.4,0.2-2.7,0.6-3.9c0.4-1.2,1-2.2,1.9-3c0.8-0.8,1.8-1.4,3-1.9c1.2-0.4,2.5-0.6,4-0.6
			c1.2,0,2.3,0.2,3.2,0.5c0.9,0.3,1.7,0.7,2.3,1.2s1,1,1.3,1.6c0.3,0.6,0.4,1,0.4,1.5c0,0.5-0.2,0.9-0.5,1.2
			c-0.3,0.3-0.8,0.5-1.2,0.5c-0.3,0-0.5-0.1-0.8-0.2c-0.2-0.1-0.4-0.3-0.6-0.5c-0.5-0.7-0.8-1.2-1.1-1.6c-0.3-0.4-0.7-0.7-1.3-0.9
			s-1.2-0.4-2-0.4c-0.8,0-1.6,0.1-2.3,0.4c-0.7,0.3-1.2,0.7-1.7,1.3c-0.5,0.6-0.8,1.2-1.1,2c-0.3,0.8-0.4,1.7-0.4,2.7
			c0,2.1,0.5,3.8,1.5,4.9c1,1.1,2.3,1.7,4.1,1.7c0.8,0,1.6-0.1,2.4-0.3c0.7-0.2,1.5-0.5,2.3-1v-2.9h-2.8c-0.7,0-1.2-0.1-1.5-0.3
			c-0.4-0.2-0.5-0.6-0.5-1c0-0.4,0.1-0.7,0.4-1c0.3-0.3,0.7-0.4,1.2-0.4h4.2c0.5,0,0.9,0,1.3,0.1c0.4,0.1,0.6,0.3,0.9,0.6
			C151.6,23.1,151.7,23.6,151.7,24.2z"/>
		<path class="st8" d="M157.2,29.6V15.4c0-0.7,0.2-1.3,0.5-1.7c0.3-0.4,0.8-0.6,1.3-0.6c0.6,0,1,0.2,1.3,0.5
			c0.3,0.4,0.5,0.9,0.5,1.7v14.3c0,0.7-0.2,1.3-0.5,1.7c-0.3,0.4-0.8,0.6-1.3,0.6c-0.5,0-1-0.2-1.3-0.6
			C157.4,30.9,157.2,30.4,157.2,29.6z"/>
		<path class="st8" d="M178.7,16.5h-4v13.2c0,0.8-0.2,1.3-0.5,1.7c-0.3,0.4-0.8,0.5-1.3,0.5c-0.5,0-1-0.2-1.3-0.6
			c-0.3-0.4-0.5-0.9-0.5-1.7V16.5h-4c-0.6,0-1.1-0.1-1.4-0.4c-0.3-0.3-0.5-0.6-0.5-1.1c0-0.5,0.2-0.8,0.5-1.1
			c0.3-0.3,0.8-0.4,1.4-0.4h11.7c0.6,0,1.1,0.1,1.4,0.4c0.3,0.3,0.5,0.6,0.5,1.1c0,0.5-0.2,0.8-0.5,1.1
			C179.8,16.3,179.3,16.5,178.7,16.5z"/>
		<path class="st8" d="M194.6,29.5l-0.9-2.3h-7.4l-0.9,2.3c-0.3,0.9-0.6,1.5-0.9,1.8c-0.2,0.3-0.6,0.5-1.2,0.5
			c-0.5,0-0.9-0.2-1.2-0.5c-0.4-0.3-0.5-0.7-0.5-1.1c0-0.2,0-0.5,0.1-0.8c0.1-0.3,0.2-0.6,0.4-1.1l4.6-11.8c0.1-0.3,0.3-0.7,0.5-1.2
			s0.4-0.9,0.6-1.2c0.2-0.3,0.5-0.6,0.8-0.8c0.3-0.2,0.8-0.3,1.3-0.3c0.5,0,0.9,0.1,1.3,0.3c0.3,0.2,0.6,0.4,0.8,0.7
			c0.2,0.3,0.4,0.6,0.5,1c0.1,0.3,0.3,0.8,0.6,1.4l4.7,11.7c0.4,0.9,0.6,1.5,0.6,1.9c0,0.4-0.2,0.8-0.5,1.2
			c-0.3,0.3-0.8,0.5-1.3,0.5c-0.3,0-0.5-0.1-0.7-0.2c-0.2-0.1-0.4-0.2-0.5-0.4c-0.1-0.2-0.3-0.4-0.5-0.8
			C194.9,30.1,194.7,29.8,194.6,29.5z M187.3,24.5h5.4L190,17L187.3,24.5z"/>
		<path class="st8" d="M206.7,15.4v13.2h7.4c0.6,0,1,0.1,1.4,0.4c0.3,0.3,0.5,0.7,0.5,1.1c0,0.4-0.2,0.8-0.5,1.1
			c-0.3,0.3-0.8,0.4-1.4,0.4h-8.9c-0.8,0-1.4-0.2-1.7-0.5c-0.3-0.4-0.5-0.9-0.5-1.7V15.4c0-0.7,0.2-1.3,0.5-1.7
			c0.3-0.4,0.8-0.6,1.3-0.6c0.6,0,1,0.2,1.3,0.5C206.5,14.1,206.7,14.6,206.7,15.4z"/>
	</g>
	<g class="st0">
		<path class="st9" d="M60.5,33.3H63c0.7,0,1.2,0.1,1.7,0.2c0.5,0.1,0.9,0.3,1.3,0.6c1,0.8,1.5,2,1.5,3.7c0,0.5-0.1,1-0.2,1.5
			c-0.1,0.4-0.3,0.9-0.5,1.2c-0.2,0.4-0.5,0.7-0.8,1c-0.3,0.2-0.5,0.4-0.8,0.5c-0.3,0.1-0.6,0.2-1,0.3c-0.4,0.1-0.7,0.1-1.2,0.1
			h-2.5c-0.4,0-0.6,0-0.8-0.2c-0.2-0.1-0.3-0.2-0.4-0.4s-0.1-0.4-0.1-0.7v-6.6c0-0.4,0.1-0.7,0.3-0.9C59.8,33.4,60.1,33.3,60.5,33.3
			z M61.2,34.7v6.1h1.5c0.3,0,0.6,0,0.8,0c0.2,0,0.4-0.1,0.6-0.1s0.4-0.2,0.5-0.3c0.7-0.5,1-1.4,1-2.7c0-0.9-0.1-1.6-0.4-2
			c-0.3-0.4-0.6-0.7-1.1-0.8c-0.4-0.1-0.9-0.2-1.5-0.2H61.2z"/>
		<path class="st9" d="M74.2,41.6c-0.4,0.3-0.9,0.6-1.3,0.7c-0.4,0.2-0.9,0.2-1.4,0.2c-0.5,0-0.9-0.1-1.2-0.3
			c-0.3-0.2-0.6-0.4-0.8-0.7c-0.2-0.3-0.3-0.6-0.3-1c0-0.5,0.2-0.9,0.5-1.2c0.3-0.3,0.7-0.5,1.3-0.7c0.1,0,0.4-0.1,0.8-0.2
			c0.5-0.1,0.8-0.2,1.2-0.2c0.3-0.1,0.7-0.2,1-0.3c0-0.4-0.1-0.8-0.3-1c-0.2-0.2-0.5-0.3-1-0.3c-0.5,0-0.8,0.1-1,0.2
			c-0.2,0.1-0.4,0.3-0.6,0.5c-0.2,0.2-0.3,0.4-0.3,0.5c-0.1,0.1-0.2,0.1-0.4,0.1c-0.2,0-0.4-0.1-0.5-0.2c-0.1-0.1-0.2-0.3-0.2-0.5
			c0-0.3,0.1-0.6,0.3-0.9c0.2-0.3,0.6-0.5,1-0.7c0.5-0.2,1.1-0.3,1.8-0.3c0.8,0,1.4,0.1,1.9,0.3c0.5,0.2,0.8,0.5,1,0.8
			c0.2,0.4,0.3,0.9,0.3,1.5c0,0.4,0,0.7,0,1c0,0.3,0,0.6,0,0.9c0,0.3,0.1,0.6,0.2,1c0.1,0.3,0.2,0.6,0.2,0.7c0,0.2-0.1,0.3-0.3,0.5
			c-0.2,0.1-0.4,0.2-0.6,0.2c-0.2,0-0.4-0.1-0.5-0.2C74.6,42.1,74.4,41.9,74.2,41.6z M74,39.1c-0.3,0.1-0.6,0.2-1.1,0.3
			c-0.5,0.1-0.8,0.2-1,0.2c-0.2,0-0.4,0.1-0.6,0.3C71.1,40,71,40.2,71,40.5c0,0.3,0.1,0.5,0.3,0.7s0.5,0.3,0.8,0.3
			c0.4,0,0.7-0.1,1-0.2c0.3-0.1,0.5-0.3,0.7-0.6c0.2-0.3,0.2-0.7,0.2-1.3V39.1z"/>
		<path class="st9" d="M77.9,35.8h0.2v-1c0-0.3,0-0.5,0-0.6c0-0.2,0.1-0.3,0.1-0.4c0.1-0.1,0.2-0.2,0.3-0.3c0.1-0.1,0.3-0.1,0.4-0.1
			c0.2,0,0.4,0.1,0.6,0.2c0.1,0.1,0.2,0.2,0.2,0.4s0,0.4,0,0.7v1.1h0.7c0.3,0,0.4,0.1,0.6,0.2c0.1,0.1,0.2,0.3,0.2,0.4
			c0,0.2-0.1,0.4-0.3,0.5C80.9,37,80.6,37,80.2,37h-0.3v3.1c0,0.3,0,0.5,0,0.6c0,0.1,0.1,0.3,0.2,0.3c0.1,0.1,0.2,0.1,0.4,0.1
			c0.1,0,0.2,0,0.4-0.1c0.2,0,0.3-0.1,0.4-0.1c0.1,0,0.3,0.1,0.4,0.2c0.1,0.1,0.2,0.2,0.2,0.4c0,0.3-0.2,0.5-0.5,0.6
			c-0.3,0.1-0.8,0.2-1.4,0.2c-0.6,0-1-0.1-1.3-0.3c-0.3-0.2-0.5-0.4-0.6-0.7c-0.1-0.3-0.1-0.7-0.1-1.3V37h-0.2
			c-0.3,0-0.5-0.1-0.6-0.2c-0.1-0.1-0.2-0.3-0.2-0.4c0-0.2,0.1-0.3,0.2-0.4C77.4,35.9,77.6,35.8,77.9,35.8z"/>
		<path class="st9" d="M87.6,41.6c-0.4,0.3-0.9,0.6-1.3,0.7c-0.4,0.2-0.9,0.2-1.4,0.2c-0.5,0-0.9-0.1-1.2-0.3s-0.6-0.4-0.8-0.7
			c-0.2-0.3-0.3-0.6-0.3-1c0-0.5,0.2-0.9,0.5-1.2c0.3-0.3,0.7-0.5,1.3-0.7c0.1,0,0.4-0.1,0.8-0.2c0.5-0.1,0.8-0.2,1.2-0.2
			c0.3-0.1,0.7-0.2,1-0.3c0-0.4-0.1-0.8-0.3-1c-0.2-0.2-0.5-0.3-1-0.3c-0.5,0-0.8,0.1-1,0.2c-0.2,0.1-0.4,0.3-0.6,0.5
			c-0.2,0.2-0.3,0.4-0.3,0.5c-0.1,0.1-0.2,0.1-0.4,0.1c-0.2,0-0.4-0.1-0.5-0.2c-0.1-0.1-0.2-0.3-0.2-0.5c0-0.3,0.1-0.6,0.3-0.9
			c0.2-0.3,0.6-0.5,1-0.7c0.5-0.2,1.1-0.3,1.8-0.3c0.8,0,1.4,0.1,1.9,0.3c0.5,0.2,0.8,0.5,1,0.8c0.2,0.4,0.3,0.9,0.3,1.5
			c0,0.4,0,0.7,0,1c0,0.3,0,0.6,0,0.9c0,0.3,0.1,0.6,0.2,1c0.1,0.3,0.2,0.6,0.2,0.7c0,0.2-0.1,0.3-0.3,0.5c-0.2,0.1-0.4,0.2-0.6,0.2
			c-0.2,0-0.4-0.1-0.5-0.2C88,42.1,87.8,41.9,87.6,41.6z M87.5,39.1c-0.3,0.1-0.6,0.2-1.1,0.3c-0.5,0.1-0.8,0.2-1,0.2
			c-0.2,0-0.4,0.1-0.6,0.3c-0.2,0.1-0.3,0.3-0.3,0.6c0,0.3,0.1,0.5,0.3,0.7c0.2,0.2,0.5,0.3,0.8,0.3c0.4,0,0.7-0.1,1-0.2
			c0.3-0.1,0.5-0.3,0.7-0.6c0.2-0.3,0.2-0.7,0.2-1.3V39.1z"/>
		<path class="st9" d="M96.9,33.3h2.5c0.7,0,1.2,0.1,1.7,0.2c0.5,0.1,0.9,0.3,1.3,0.6c1,0.8,1.5,2,1.5,3.7c0,0.5-0.1,1-0.2,1.5
			c-0.1,0.4-0.3,0.9-0.5,1.2c-0.2,0.4-0.5,0.7-0.8,1c-0.3,0.2-0.5,0.4-0.8,0.5c-0.3,0.1-0.6,0.2-1,0.3c-0.4,0.1-0.7,0.1-1.2,0.1
			h-2.5c-0.4,0-0.6,0-0.8-0.2c-0.2-0.1-0.3-0.2-0.4-0.4s-0.1-0.4-0.1-0.7v-6.6c0-0.4,0.1-0.7,0.3-0.9C96.1,33.4,96.4,33.3,96.9,33.3
			z M97.6,34.7v6.1h1.5c0.3,0,0.6,0,0.8,0c0.2,0,0.4-0.1,0.6-0.1c0.2-0.1,0.4-0.2,0.5-0.3c0.7-0.5,1-1.4,1-2.7c0-0.9-0.1-1.6-0.4-2
			c-0.3-0.4-0.6-0.7-1.1-0.8c-0.4-0.1-0.9-0.2-1.5-0.2H97.6z"/>
		<path class="st9" d="M111,39.5h-3.5c0,0.4,0.1,0.7,0.2,1c0.2,0.3,0.4,0.5,0.6,0.7c0.3,0.1,0.6,0.2,0.9,0.2c0.2,0,0.4,0,0.6-0.1
			c0.2,0,0.3-0.1,0.5-0.2c0.2-0.1,0.3-0.2,0.5-0.3c0.1-0.1,0.3-0.3,0.5-0.5c0.1-0.1,0.2-0.1,0.4-0.1c0.2,0,0.3,0,0.4,0.1
			c0.1,0.1,0.2,0.2,0.2,0.4c0,0.2-0.1,0.3-0.2,0.5c-0.1,0.2-0.3,0.4-0.6,0.6c-0.3,0.2-0.6,0.3-1,0.5c-0.4,0.1-0.8,0.2-1.3,0.2
			c-1.1,0-2-0.3-2.7-0.9c-0.6-0.6-1-1.5-1-2.5c0-0.5,0.1-1,0.2-1.4c0.2-0.4,0.4-0.8,0.7-1.1c0.3-0.3,0.7-0.5,1.1-0.7
			c0.4-0.2,0.9-0.2,1.5-0.2c0.7,0,1.3,0.1,1.8,0.4c0.5,0.3,0.9,0.6,1.1,1.1c0.2,0.4,0.4,0.9,0.4,1.3c0,0.4-0.1,0.7-0.4,0.8
			C111.8,39.4,111.5,39.5,111,39.5z M107.5,38.5h3.2c0-0.6-0.2-1-0.5-1.3c-0.3-0.3-0.7-0.4-1.1-0.4c-0.4,0-0.8,0.1-1.1,0.4
			C107.7,37.5,107.6,38,107.5,38.5z"/>
		<path class="st9" d="M120.9,40.4c0,0.2-0.1,0.4-0.2,0.7c-0.1,0.2-0.3,0.5-0.6,0.7c-0.3,0.2-0.6,0.4-1,0.5
			c-0.4,0.1-0.9,0.2-1.4,0.2c-1.1,0-2-0.3-2.6-0.9c-0.6-0.6-0.9-1.4-0.9-2.4c0-0.7,0.1-1.3,0.4-1.8c0.3-0.5,0.7-0.9,1.2-1.2
			c0.5-0.3,1.2-0.4,1.9-0.4c0.5,0,0.9,0.1,1.3,0.2c0.4,0.1,0.7,0.3,1,0.5c0.3,0.2,0.5,0.4,0.6,0.6c0.1,0.2,0.2,0.4,0.2,0.6
			c0,0.2-0.1,0.4-0.2,0.5c-0.2,0.1-0.4,0.2-0.6,0.2c-0.1,0-0.3,0-0.4-0.1c-0.1-0.1-0.2-0.2-0.3-0.3c-0.2-0.3-0.4-0.5-0.7-0.7
			c-0.2-0.2-0.5-0.2-0.9-0.2c-0.5,0-1,0.2-1.3,0.6c-0.3,0.4-0.5,0.9-0.5,1.6c0,0.3,0,0.6,0.1,0.9c0.1,0.3,0.2,0.5,0.4,0.7
			c0.2,0.2,0.3,0.3,0.6,0.4c0.2,0.1,0.5,0.1,0.7,0.1c0.4,0,0.7-0.1,0.9-0.2c0.3-0.2,0.5-0.4,0.7-0.7c0.1-0.2,0.2-0.3,0.4-0.4
			c0.1-0.1,0.3-0.2,0.5-0.2c0.2,0,0.4,0.1,0.5,0.2C120.9,40.1,120.9,40.2,120.9,40.4z"/>
		<path class="st9" d="M123.9,34.9c-0.2,0-0.5-0.1-0.6-0.2c-0.2-0.1-0.3-0.3-0.3-0.6c0-0.2,0.1-0.4,0.3-0.6c0.2-0.2,0.4-0.2,0.6-0.2
			c0.2,0,0.4,0.1,0.6,0.2c0.2,0.1,0.3,0.3,0.3,0.6c0,0.3-0.1,0.5-0.3,0.6C124.4,34.8,124.2,34.9,123.9,34.9z M124.8,36.6v4.9
			c0,0.3-0.1,0.6-0.3,0.8c-0.2,0.2-0.4,0.3-0.6,0.3s-0.5-0.1-0.6-0.3c-0.2-0.2-0.2-0.4-0.2-0.8v-4.8c0-0.3,0.1-0.6,0.2-0.8
			c0.2-0.2,0.4-0.3,0.6-0.3s0.5,0.1,0.6,0.3S124.8,36.3,124.8,36.6z"/>
		<path class="st9" d="M133,40.3c0,0.5-0.1,0.9-0.4,1.2c-0.2,0.3-0.6,0.6-1.1,0.8c-0.5,0.2-1,0.3-1.7,0.3c-0.6,0-1.2-0.1-1.7-0.3
			c-0.5-0.2-0.8-0.4-1-0.7s-0.3-0.6-0.3-0.8c0-0.2,0.1-0.3,0.2-0.5c0.1-0.1,0.3-0.2,0.5-0.2c0.2,0,0.3,0,0.4,0.1
			c0.1,0.1,0.2,0.2,0.3,0.4c0.2,0.3,0.4,0.5,0.7,0.7c0.3,0.1,0.6,0.2,1,0.2c0.4,0,0.7-0.1,0.9-0.2c0.2-0.1,0.3-0.3,0.3-0.5
			c0-0.3-0.1-0.5-0.4-0.6c-0.2-0.1-0.6-0.3-1.2-0.4c-0.6-0.1-1.1-0.3-1.5-0.5c-0.4-0.2-0.7-0.4-0.9-0.6s-0.3-0.6-0.3-1
			c0-0.3,0.1-0.7,0.3-1c0.2-0.3,0.5-0.5,0.9-0.7c0.4-0.2,0.9-0.3,1.5-0.3c0.5,0,0.9,0,1.2,0.1s0.7,0.2,0.9,0.4
			c0.2,0.2,0.4,0.3,0.6,0.5c0.1,0.2,0.2,0.4,0.2,0.5c0,0.2-0.1,0.4-0.2,0.5c-0.1,0.1-0.3,0.2-0.6,0.2c-0.2,0-0.3,0-0.5-0.1
			c-0.1-0.1-0.3-0.2-0.4-0.4c-0.1-0.2-0.3-0.3-0.5-0.4c-0.2-0.1-0.4-0.1-0.7-0.1c-0.3,0-0.6,0.1-0.8,0.2c-0.2,0.1-0.3,0.3-0.3,0.5
			c0,0.2,0.1,0.3,0.2,0.4c0.2,0.1,0.4,0.2,0.6,0.3c0.3,0.1,0.6,0.2,1.1,0.3c0.6,0.1,1,0.3,1.4,0.5c0.4,0.2,0.6,0.4,0.8,0.6
			C132.9,39.7,133,40,133,40.3z"/>
		<path class="st9" d="M135.9,34.9c-0.2,0-0.5-0.1-0.6-0.2c-0.2-0.1-0.3-0.3-0.3-0.6c0-0.2,0.1-0.4,0.3-0.6c0.2-0.2,0.4-0.2,0.6-0.2
			c0.2,0,0.4,0.1,0.6,0.2c0.2,0.1,0.3,0.3,0.3,0.6c0,0.3-0.1,0.5-0.3,0.6C136.4,34.8,136.2,34.9,135.9,34.9z M136.8,36.6v4.9
			c0,0.3-0.1,0.6-0.3,0.8c-0.2,0.2-0.4,0.3-0.6,0.3s-0.5-0.1-0.6-0.3c-0.2-0.2-0.2-0.4-0.2-0.8v-4.8c0-0.3,0.1-0.6,0.2-0.8
			c0.2-0.2,0.4-0.3,0.6-0.3s0.5,0.1,0.6,0.3C136.7,36.1,136.8,36.3,136.8,36.6z"/>
		<path class="st9" d="M145.9,39.1c0,0.5-0.1,1-0.2,1.4c-0.2,0.4-0.4,0.8-0.7,1.1c-0.3,0.3-0.7,0.5-1.1,0.7s-0.9,0.2-1.5,0.2
			c-0.5,0-1-0.1-1.5-0.2c-0.4-0.2-0.8-0.4-1.1-0.7c-0.3-0.3-0.6-0.7-0.7-1.1c-0.2-0.4-0.2-0.9-0.2-1.4c0-0.5,0.1-1,0.2-1.4
			c0.2-0.4,0.4-0.8,0.7-1.1c0.3-0.3,0.7-0.5,1.1-0.7s0.9-0.2,1.5-0.2c0.5,0,1,0.1,1.5,0.2c0.4,0.2,0.8,0.4,1.1,0.7
			c0.3,0.3,0.6,0.7,0.7,1.1C145.8,38.1,145.9,38.6,145.9,39.1z M144.1,39.1c0-0.7-0.2-1.2-0.5-1.6s-0.8-0.6-1.3-0.6
			c-0.3,0-0.7,0.1-0.9,0.3c-0.3,0.2-0.5,0.4-0.6,0.8c-0.1,0.3-0.2,0.7-0.2,1.2c0,0.4,0.1,0.8,0.2,1.2c0.1,0.3,0.3,0.6,0.6,0.8
			c0.3,0.2,0.6,0.3,0.9,0.3c0.5,0,1-0.2,1.3-0.6S144.1,39.8,144.1,39.1z"/>
		<path class="st9" d="M149.5,36.6v0.2c0.3-0.4,0.7-0.7,1-0.9c0.4-0.2,0.8-0.3,1.3-0.3c0.5,0,0.9,0.1,1.3,0.3
			c0.4,0.2,0.6,0.5,0.8,0.8c0.1,0.2,0.2,0.4,0.2,0.7c0,0.2,0.1,0.5,0.1,0.9v3.1c0,0.3-0.1,0.6-0.2,0.8c-0.2,0.2-0.4,0.3-0.6,0.3
			c-0.3,0-0.5-0.1-0.6-0.3c-0.2-0.2-0.2-0.4-0.2-0.8v-2.8c0-0.6-0.1-1-0.2-1.3c-0.2-0.3-0.5-0.4-1-0.4c-0.3,0-0.6,0.1-0.9,0.3
			s-0.5,0.4-0.6,0.7c-0.1,0.3-0.1,0.7-0.1,1.4v2.1c0,0.3-0.1,0.6-0.3,0.8c-0.2,0.2-0.4,0.3-0.7,0.3c-0.3,0-0.5-0.1-0.6-0.3
			c-0.2-0.2-0.2-0.4-0.2-0.8v-4.9c0-0.3,0.1-0.6,0.2-0.7c0.1-0.2,0.4-0.2,0.6-0.2c0.2,0,0.3,0,0.4,0.1c0.1,0.1,0.2,0.2,0.3,0.3
			C149.4,36.2,149.5,36.4,149.5,36.6z"/>
		<path class="st9" d="M162.3,40.3c0,0.5-0.1,0.9-0.4,1.2c-0.2,0.3-0.6,0.6-1.1,0.8c-0.5,0.2-1,0.3-1.7,0.3c-0.6,0-1.2-0.1-1.7-0.3
			c-0.5-0.2-0.8-0.4-1-0.7s-0.3-0.6-0.3-0.8c0-0.2,0.1-0.3,0.2-0.5c0.1-0.1,0.3-0.2,0.5-0.2c0.2,0,0.3,0,0.4,0.1
			c0.1,0.1,0.2,0.2,0.3,0.4c0.2,0.3,0.4,0.5,0.7,0.7c0.3,0.1,0.6,0.2,1,0.2c0.4,0,0.7-0.1,0.9-0.2c0.2-0.1,0.3-0.3,0.3-0.5
			c0-0.3-0.1-0.5-0.4-0.6c-0.2-0.1-0.6-0.3-1.2-0.4c-0.6-0.1-1.1-0.3-1.5-0.5c-0.4-0.2-0.7-0.4-0.9-0.6c-0.2-0.3-0.3-0.6-0.3-1
			c0-0.3,0.1-0.7,0.3-1c0.2-0.3,0.5-0.5,0.9-0.7c0.4-0.2,0.9-0.3,1.5-0.3c0.5,0,0.9,0,1.2,0.1c0.4,0.1,0.7,0.2,0.9,0.4
			c0.2,0.2,0.4,0.3,0.6,0.5c0.1,0.2,0.2,0.4,0.2,0.5c0,0.2-0.1,0.4-0.2,0.5c-0.1,0.1-0.3,0.2-0.6,0.2c-0.2,0-0.3,0-0.5-0.1
			c-0.1-0.1-0.3-0.2-0.4-0.4c-0.1-0.2-0.3-0.3-0.5-0.4c-0.2-0.1-0.4-0.1-0.7-0.1c-0.3,0-0.6,0.1-0.8,0.2c-0.2,0.1-0.3,0.3-0.3,0.5
			c0,0.2,0.1,0.3,0.2,0.4c0.2,0.1,0.4,0.2,0.6,0.3c0.3,0.1,0.6,0.2,1.1,0.3c0.6,0.1,1,0.3,1.4,0.5c0.4,0.2,0.6,0.4,0.8,0.6
			C162.2,39.7,162.3,40,162.3,40.3z"/>
		<path class="st9" d="M169.5,33.3h2.5c0.7,0,1.2,0.1,1.7,0.2c0.5,0.1,0.9,0.3,1.3,0.6c1,0.8,1.5,2,1.5,3.7c0,0.5-0.1,1-0.2,1.5
			c-0.1,0.4-0.3,0.9-0.5,1.2c-0.2,0.4-0.5,0.7-0.8,1c-0.3,0.2-0.5,0.4-0.8,0.5c-0.3,0.1-0.6,0.2-1,0.3c-0.4,0.1-0.7,0.1-1.2,0.1
			h-2.5c-0.4,0-0.6,0-0.8-0.2c-0.2-0.1-0.3-0.2-0.4-0.4c-0.1-0.2-0.1-0.4-0.1-0.7v-6.6c0-0.4,0.1-0.7,0.3-0.9
			C168.8,33.4,169.1,33.3,169.5,33.3z M170.3,34.7v6.1h1.5c0.3,0,0.6,0,0.8,0c0.2,0,0.4-0.1,0.6-0.1s0.4-0.2,0.5-0.3
			c0.7-0.5,1-1.4,1-2.7c0-0.9-0.1-1.6-0.4-2c-0.3-0.4-0.6-0.7-1.1-0.8c-0.4-0.1-0.9-0.2-1.5-0.2H170.3z"/>
		<path class="st9" d="M183.7,39.5h-3.5c0,0.4,0.1,0.7,0.2,1c0.2,0.3,0.4,0.5,0.6,0.7c0.3,0.1,0.6,0.2,0.9,0.2c0.2,0,0.4,0,0.6-0.1
			c0.2,0,0.3-0.1,0.5-0.2c0.2-0.1,0.3-0.2,0.5-0.3c0.1-0.1,0.3-0.3,0.5-0.5c0.1-0.1,0.2-0.1,0.4-0.1c0.2,0,0.3,0,0.4,0.1
			c0.1,0.1,0.2,0.2,0.2,0.4c0,0.2-0.1,0.3-0.2,0.5c-0.1,0.2-0.3,0.4-0.6,0.6s-0.6,0.3-1,0.5c-0.4,0.1-0.8,0.2-1.3,0.2
			c-1.1,0-2-0.3-2.7-0.9c-0.6-0.6-1-1.5-1-2.5c0-0.5,0.1-1,0.2-1.4c0.2-0.4,0.4-0.8,0.7-1.1s0.7-0.5,1.1-0.7
			c0.4-0.2,0.9-0.2,1.5-0.2c0.7,0,1.3,0.1,1.8,0.4c0.5,0.3,0.9,0.6,1.1,1.1c0.2,0.4,0.4,0.9,0.4,1.3c0,0.4-0.1,0.7-0.4,0.8
			C184.5,39.4,184.1,39.5,183.7,39.5z M180.2,38.5h3.2c0-0.6-0.2-1-0.5-1.3c-0.3-0.3-0.7-0.4-1.1-0.4c-0.4,0-0.8,0.1-1.1,0.4
			C180.4,37.5,180.2,38,180.2,38.5z"/>
		<path class="st9" d="M187.2,41.5v-7.3c0-0.3,0.1-0.6,0.2-0.8c0.2-0.2,0.4-0.3,0.6-0.3c0.3,0,0.5,0.1,0.7,0.3
			c0.2,0.2,0.2,0.4,0.2,0.8v7.3c0,0.3-0.1,0.6-0.3,0.8s-0.4,0.3-0.7,0.3c-0.3,0-0.5-0.1-0.6-0.3C187.3,42.1,187.2,41.8,187.2,41.5z"
			/>
		<path class="st9" d="M192.3,34.9c-0.2,0-0.5-0.1-0.6-0.2c-0.2-0.1-0.3-0.3-0.3-0.6c0-0.2,0.1-0.4,0.3-0.6c0.2-0.2,0.4-0.2,0.6-0.2
			c0.2,0,0.4,0.1,0.6,0.2c0.2,0.1,0.3,0.3,0.3,0.6c0,0.3-0.1,0.5-0.3,0.6C192.7,34.8,192.5,34.9,192.3,34.9z M193.2,36.6v4.9
			c0,0.3-0.1,0.6-0.3,0.8c-0.2,0.2-0.4,0.3-0.6,0.3s-0.5-0.1-0.6-0.3c-0.2-0.2-0.2-0.4-0.2-0.8v-4.8c0-0.3,0.1-0.6,0.2-0.8
			c0.2-0.2,0.4-0.3,0.6-0.3s0.5,0.1,0.6,0.3S193.2,36.3,193.2,36.6z"/>
		<path class="st9" d="M196.8,36.7l1.4,3.8l1.6-4c0.1-0.3,0.2-0.5,0.4-0.7c0.1-0.1,0.3-0.2,0.5-0.2c0.2,0,0.4,0.1,0.6,0.2
			c0.2,0.1,0.2,0.3,0.2,0.5c0,0.1,0,0.2,0,0.3c0,0.1-0.1,0.2-0.1,0.3c0,0.1-0.1,0.2-0.1,0.3l-1.7,4c0,0.1-0.1,0.3-0.2,0.4
			c-0.1,0.2-0.2,0.3-0.3,0.5c-0.1,0.1-0.2,0.2-0.3,0.3c-0.1,0.1-0.3,0.1-0.5,0.1c-0.3,0-0.5-0.1-0.6-0.2c-0.2-0.1-0.3-0.2-0.3-0.4
			s-0.2-0.4-0.4-0.8l-1.7-4c0-0.1-0.1-0.2-0.1-0.3c0-0.1-0.1-0.2-0.1-0.3c0-0.1,0-0.2,0-0.3c0-0.1,0-0.2,0.1-0.3
			c0.1-0.1,0.2-0.2,0.3-0.3c0.1-0.1,0.3-0.1,0.4-0.1c0.3,0,0.5,0.1,0.6,0.2C196.6,36,196.7,36.3,196.8,36.7z"/>
		<path class="st9" d="M208.2,39.5h-3.5c0,0.4,0.1,0.7,0.2,1c0.2,0.3,0.4,0.5,0.6,0.7c0.3,0.1,0.6,0.2,0.9,0.2c0.2,0,0.4,0,0.6-0.1
			c0.2,0,0.3-0.1,0.5-0.2c0.2-0.1,0.3-0.2,0.5-0.3c0.1-0.1,0.3-0.3,0.5-0.5c0.1-0.1,0.2-0.1,0.4-0.1c0.2,0,0.3,0,0.4,0.1
			c0.1,0.1,0.2,0.2,0.2,0.4c0,0.2-0.1,0.3-0.2,0.5c-0.1,0.2-0.3,0.4-0.6,0.6s-0.6,0.3-1,0.5c-0.4,0.1-0.8,0.2-1.3,0.2
			c-1.1,0-2-0.3-2.7-0.9c-0.6-0.6-1-1.5-1-2.5c0-0.5,0.1-1,0.2-1.4c0.2-0.4,0.4-0.8,0.7-1.1c0.3-0.3,0.7-0.5,1.1-0.7
			c0.4-0.2,0.9-0.2,1.5-0.2c0.7,0,1.3,0.1,1.8,0.4c0.5,0.3,0.9,0.6,1.1,1.1c0.2,0.4,0.4,0.9,0.4,1.3c0,0.4-0.1,0.7-0.4,0.8
			S208.7,39.5,208.2,39.5z M204.7,38.5h3.2c0-0.6-0.2-1-0.5-1.3c-0.3-0.3-0.7-0.4-1.1-0.4c-0.4,0-0.8,0.1-1.1,0.4
			C204.9,37.5,204.7,38,204.7,38.5z"/>
		<path class="st9" d="M213.5,40.1v1.4c0,0.3-0.1,0.6-0.3,0.8c-0.2,0.2-0.4,0.3-0.6,0.3c-0.3,0-0.5-0.1-0.6-0.3
			c-0.2-0.2-0.2-0.4-0.2-0.8v-4.7c0-0.8,0.3-1.1,0.9-1.1c0.3,0,0.5,0.1,0.6,0.3c0.1,0.2,0.2,0.4,0.2,0.8c0.2-0.3,0.4-0.6,0.7-0.8
			c0.2-0.2,0.5-0.3,0.9-0.3s0.7,0.1,1.1,0.3c0.4,0.2,0.5,0.4,0.5,0.7c0,0.2-0.1,0.4-0.2,0.5c-0.2,0.1-0.3,0.2-0.5,0.2
			c-0.1,0-0.2,0-0.5-0.1c-0.3-0.1-0.5-0.1-0.7-0.1c-0.3,0-0.5,0.1-0.6,0.2c-0.2,0.1-0.3,0.3-0.4,0.6c-0.1,0.3-0.2,0.6-0.2,0.9
			C213.5,39.1,213.5,39.6,213.5,40.1z"/>
	</g>
</g>
</svg>
