<?xml version="1.0" encoding="utf-8"?>
<!-- Generator: Adobe Illustrator 22.0.1, SVG Export Plug-In . SVG Version: 6.00 Build 0)  -->
<svg version="1.1" xmlns="http://www.w3.org/2000/svg" xmlns:xlink="http://www.w3.org/1999/xlink" x="0px" y="0px"
	 viewBox="0 0 218 48" style="enable-background:new 0 0 218 48;" xml:space="preserve">
<style type="text/css">
	.st0{display:none;}
	.st1{display:inline;}
	.st2{fill:#FF4400;}
	.st3{fill:#FFFFFF;}
	.st4{fill:#F54400;}
	.st5{fill:#E84400;}
	.st6{fill:#F75828;}
	.st7{fill:#F94610;}
	.st8{font-family:'ArialRoundedMTBold';}
	.st9{font-size:23.7397px;}
	.st10{letter-spacing:1;}
	.st11{font-size:11.8698px;}
</style>
<g id="Layer_1" xmlns:figma="http://www.figma.com/figma/ns" class="st0">
	<g transform="translate(-1470)" figma:type="canvas" class="st1">
		<g transform="translate(1470)" figma:type="vector">
			<g>
				<path id="r" class="st2" d="M77.2,35.2c0.3,0.3,0.1,0.8-0.4,0.8H71c-0.3,0-0.6-0.1-0.7-0.3l-9.4-10.5v10.4
					c0,0.3-0.2,0.5-0.5,0.5H55c-0.3,0-0.5-0.2-0.5-0.5v-23c0-0.3,0.2-0.5,0.5-0.5h5.3c0.3,0,0.5,0.2,0.5,0.5v9.8l9.1-10
					c0.2-0.2,0.5-0.3,0.7-0.3h5.8c0.4,0,0.7,0.5,0.4,0.8l-9.9,10.6L77.2,35.2L77.2,35.2z"/>
			</g>
			<g>
				<path id="c" class="st2" d="M100.5,36c-0.2,0-0.4-0.1-0.5-0.3L98,31H87.3l-2,4.7c-0.1,0.2-0.3,0.3-0.5,0.3h-5.2
					c-0.4,0-0.6-0.4-0.5-0.7l10.8-23c0.1-0.2,0.3-0.3,0.5-0.3h4.4c0.2,0,0.4,0.1,0.5,0.3l10.8,23c0.2,0.3-0.1,0.7-0.5,0.7
					C105.6,36,100.5,36,100.5,36z M89.4,26.3H96l-3.3-7.7L89.4,26.3L89.4,26.3z"/>
			</g>
			<g>
				<path id="d" class="st2" d="M110,36c-0.3,0-0.5-0.2-0.5-0.5v-23c0-0.3,0.2-0.5,0.5-0.5h5.3c0.3,0,0.5,0.2,0.5,0.5v18.4h9.8
					c0.3,0,0.5,0.2,0.5,0.5v4.1c0,0.3-0.2,0.5-0.5,0.5H110z"/>
			</g>
			<g>
				<path id="e" class="st2" d="M129.8,12.5c0-0.3,0.2-0.5,0.5-0.5h9.3c2.7,0,5,0.5,6.9,1.4c1.9,1,3.4,2.3,4.4,4.2
					c1,1.8,1.5,3.9,1.5,6.4c0,2.5-0.5,4.7-1.5,6.5c-1,1.8-2.5,3.2-4.4,4.1c-1.9,1-4.2,1.4-6.9,1.4h-9.3c-0.3,0-0.5-0.2-0.5-0.5V12.5
					z M139.1,31c2.4,0,4.1-0.6,5.3-1.7c1.2-1.2,1.7-2.9,1.7-5.2c0-2.3-0.6-4.1-1.7-5.2c-1.2-1.2-2.9-1.7-5.3-1.7h-3.1V31H139.1z"/>
			</g>
			<g>
				<path id="f" class="st2" d="M157.4,36c-0.3,0-0.5-0.2-0.5-0.5v-23c0-0.3,0.2-0.5,0.5-0.5h5.3c0.3,0,0.5,0.2,0.5,0.5v23
					c0,0.3-0.2,0.5-0.5,0.5H157.4z"/>
			</g>
		</g>
	</g>
</g>
<g id="Layer_2">
	<g>
		<g>
			<g>
				<g>
					<path class="st2" d="M40,8.9c0.3-0.1,0.5-0.1,0.5-0.1c0,0-0.1-0.2-0.3-0.4L35,2.5c-0.2-0.2-0.6-0.3-0.8-0.3l-7.6,1.5
						c-0.3,0.1-0.5,0.1-0.5,0.1c0,0,0,0,0,0c0,0,0.1,0.2,0.3,0.4l5.1,5.8c0.2,0.2,0.3,0.6,0.2,0.8l-2.5,7.3
						c-0.1,0.3-0.2,0.5-0.2,0.5s0,0,0,0s0.1-0.2,0.2-0.5l2.5-7.3c0.1-0.3,0.4-0.5,0.6-0.6L40,8.9z"/>
				</g>
				<g>
					<path class="st3" d="M29.2,18.9c-0.1,0-0.1,0-0.2-0.1c0,0,0-0.3,0.1-0.5l2.5-7.3c0.1-0.3,0-0.6-0.2-0.8l-5.1-5.8
						C26.1,4.2,25.9,4,25.9,4c0,0,0,0-0.1-0.1s0-0.1,0.1-0.1c0.1,0,0.4-0.1,0.6-0.1l7.7-1.6c0.3-0.1,0.6,0.1,0.8,0.3l5.3,5.9
						c0.2,0.2,0.3,0.4,0.3,0.5c0,0-0.1,0.1-0.1,0.1S40.3,9,40,9l-7.5,1.5c-0.3,0.1-0.6,0.3-0.6,0.6l-2.5,7.3
						C29.3,18.7,29.2,18.9,29.2,18.9z M26.9,3.9c-0.3,0.1-0.3,0.3-0.2,0.5l4.9,5.5c0.2,0.2,0.6,0.3,0.8,0.3l7.3-1.5
						C40,8.7,40,8.5,39.9,8.3L35,2.7c-0.2-0.2-0.6-0.3-0.8-0.3L26.9,3.9z"/>
				</g>
			</g>
			<g>
				<g>
					<path class="st2" d="M26.5,4.3C26.3,4.1,26,4.2,26,4.4l-2.4,7.3c-0.1,0.3-0.2,0.5-0.2,0.5c0,0,0.1,0.2,0.3,0.4l5.1,5.8
						c0.2,0.2,0.4,0.2,0.5-0.1l2.5-7.3c0.1-0.3,0-0.6-0.2-0.8L26.5,4.3z"/>
				</g>
				<g>
					<path class="st3" d="M29.4,18.6c-0.1,0.3-0.3,0.3-0.5,0.1l-5.5-6.2c-0.2-0.2-0.3-0.4-0.2-0.4c0.1,0,0.2-0.2,0.3-0.5l2.5-7.5
						C26,3.9,26.2,3.8,26.4,4l5.4,6.1c0.2,0.2,0.3,0.6,0.2,0.8L29.4,18.6z M23.7,11.7c-0.1,0.3,0,0.6,0.2,0.8l4.9,5.5
						c0.2,0.2,0.4,0.2,0.5-0.1l2.3-7c0.1-0.3,0-0.6-0.2-0.8l-4.9-5.5c-0.2-0.2-0.4-0.2-0.5,0.1L23.7,11.7z"/>
				</g>
			</g>
			<g>
				<g>
					<path class="st2" d="M40.3,9.2C40.4,9,40.3,8.8,40,8.9l-7.6,1.5c-0.3,0.1-0.6,0.3-0.6,0.6l-2.5,7.3c-0.1,0.3,0.1,0.4,0.3,0.4
						l7.6-1.5c0.3-0.1,0.6-0.3,0.6-0.6L40.3,9.2z"/>
				</g>
				<g>
					<path class="st3" d="M29.4,18.9c-0.3,0.1-0.4-0.1-0.3-0.4l2.6-7.7c0.1-0.3,0.4-0.5,0.6-0.6l8-1.6c0.3-0.1,0.4,0.1,0.3,0.4
						L38,16.7c-0.1,0.3-0.4,0.5-0.6,0.6L29.4,18.9z M32.5,10.5c-0.3,0.1-0.6,0.3-0.6,0.6l-2.3,7c-0.1,0.3,0.1,0.4,0.3,0.4l7.2-1.5
						c0.3-0.1,0.6-0.3,0.6-0.6l2.3-7C40.2,9.2,40,9,39.7,9.1L32.5,10.5z"/>
				</g>
			</g>
		</g>
	</g>
	<g>
		<g>
			<g>
				<g>
					<path class="st4" d="M5.9,23.5c0,0,0.2,0.1,0.4,0.3l10.9,6.3c0.2,0.1,0.6,0.1,0.9,0L29,23.7c0.2-0.1,0.4-0.3,0.4-0.2
						c0,0,0,0,0,0c0,0,0,0,0,0c0,0-0.2-0.1-0.4-0.3l-10.9-6.3c-0.2-0.1-0.6-0.1-0.9,0L6.3,23.3C6.1,23.4,5.9,23.5,5.9,23.5
						C5.9,23.5,5.9,23.5,5.9,23.5z"/>
				</g>
				<g>
					<path class="st3" d="M18.1,30.4c-0.2,0.1-0.6,0.1-0.9,0L6.1,24c-0.2-0.1-0.4-0.3-0.4-0.3c0,0-0.1-0.1-0.1-0.1
						c-0.1,0,0-0.1,0.1-0.2c0.1-0.1,0.4-0.2,0.6-0.4l11-6.4c0.2-0.1,0.6-0.1,0.9,0l11.4,6.6c0.2,0.1,0.4,0.3,0.3,0.3
						c-0.1,0-0.1,0.1-0.1,0.2c0,0.1-0.1,0.1-0.1,0.1c-0.1,0-0.3,0-0.6,0.2L18.1,30.4z M6.7,23.3c-0.2,0.1-0.2,0.4,0,0.5l10.5,6
						c0.2,0.1,0.6,0.1,0.9,0l10.5-6.1c0.2-0.1,0.2-0.4,0-0.5l-10.5-6c-0.2-0.1-0.6-0.1-0.9,0L6.7,23.3z"/>
				</g>
			</g>
			<g>
				<g>
					<path class="st4" d="M17.6,30.3c0,0-0.2-0.1-0.4-0.3L6.3,23.8c-0.2-0.1-0.4,0-0.4,0.3l0,12.6c0,0.3,0,0.5,0,0.5
						c0,0,0.2,0.1,0.4,0.3l10.9,6.3c0.2,0.1,0.4,0,0.4-0.3l0-12.6C17.6,30.6,17.6,30.3,17.6,30.3z"/>
				</g>
				<g>
					<path class="st3" d="M17.9,43.8c0,0.3-0.2,0.4-0.4,0.3L5.8,37.4c-0.2-0.1-0.4-0.3-0.3-0.3c0.1,0,0.1-0.3,0.1-0.6l0-12.9
						c0-0.3,0.2-0.4,0.4-0.3l11.7,6.7c0.2,0.1,0.4,0.3,0.3,0.3c-0.1,0-0.1,0.3-0.1,0.6L17.9,43.8z M6.1,36.5c0,0.3,0.2,0.6,0.4,0.7
						l10.4,6c0.2,0.1,0.4,0,0.4-0.3l0-12c0-0.3-0.2-0.6-0.4-0.7l-10.4-6c-0.2-0.1-0.4,0-0.4,0.3L6.1,36.5z"/>
				</g>
			</g>
			<g>
				<g>
					<path class="st5" d="M29.4,24c0-0.3,0-0.5,0-0.5c0,0-0.2,0.1-0.4,0.2l-10.9,6.3c-0.2,0.1-0.4,0.3-0.4,0.3s0,0.2,0,0.5l0,12.6
						c0,0.3,0,0.5,0,0.5c0,0,0.2-0.1,0.4-0.2L29,37.3c0.2-0.1,0.4-0.3,0.4-0.3c0,0,0-0.2,0-0.5L29.4,24z"/>
				</g>
				<g>
					<path class="st3" d="M18.1,44c-0.2,0.1-0.5,0.2-0.6,0.2c-0.1,0-0.1-0.3-0.1-0.6l0-12.6c0-0.3-0.1-0.5-0.1-0.6
						c-0.1,0,0-0.1,0.1-0.2c0.1-0.1,0.4-0.2,0.6-0.4l11-6.4c0.2-0.1,0.5-0.2,0.6-0.2s0.1,0.1,0.1,0.1c0,0,0,0.3,0,0.6l0,12.4
						c0,0.3,0.1,0.5,0.1,0.6s0,0.1-0.1,0.2c-0.1,0.1-0.4,0.2-0.6,0.4L18.1,44z M18.3,30.2c-0.2,0.1-0.4,0.5-0.4,0.8l0,12
						c0,0.3,0.2,0.4,0.4,0.2l10.4-6c0.2-0.1,0.4-0.5,0.4-0.8l0-12c0-0.3-0.2-0.4-0.4-0.2L18.3,30.2z"/>
				</g>
			</g>
			<g>
				<g>
					<path class="st5" d="M17.7,43.9C17.7,43.9,17.7,43.9,17.7,43.9C17.7,43.9,17.7,43.9,17.7,43.9C17.7,43.9,17.7,44,17.7,43.9
						C17.7,44,17.7,44,17.7,43.9C17.7,44,17.7,44,17.7,43.9z"/>
				</g>
				<g>
					<path class="st3" d="M17.7,44.2c0,0-0.1,0-0.2,0c-0.1,0-0.1-0.2-0.1-0.4s0.1-0.3,0.2-0.2c0.1,0.1,0.3,0.2,0.3,0.3
						c0,0.1,0,0.2-0.1,0.2S17.8,44.2,17.7,44.2z"/>
				</g>
			</g>
			<g>
				<g>
					<path class="st5" d="M17.7,30.3C17.6,30.3,17.6,30.3,17.7,30.3c0,0,0,0.2,0,0.5l0,12.6c0,0.3,0,0.5,0,0.5c0,0,0-0.2,0-0.5
						l0-12.6C17.7,30.6,17.7,30.3,17.7,30.3z"/>
				</g>
				<g>
					<path class="st3" d="M17.9,43.8c0,0.3-0.1,0.4-0.3,0.4s-0.3-0.4-0.3-0.6l0-12.9c0-0.3,0.1-0.5,0.1-0.6c0.1,0,0.2,0,0.3,0
						c0.1,0,0.1,0.1,0.1,0.1s0,0.3,0,0.6L17.9,43.8z"/>
				</g>
			</g>
		</g>
	</g>
	<g>
		<g>
			<g>
				<g>
					<path class="st2" d="M32.2,24c0,0,0.2,0.1,0.4,0.2l6.6,3.3c0.2,0.1,0.6,0.1,0.9-0.1l6.2-4.1c0.2-0.2,0.4-0.3,0.4-0.3
						c0,0,0,0,0,0c0,0,0,0,0,0c0,0-0.2-0.1-0.4-0.2l-6.6-3.3c-0.2-0.1-0.6-0.1-0.9,0.1l-6.2,4.1C32.4,23.8,32.2,23.9,32.2,24
						C32.2,23.9,32.2,24,32.2,24z"/>
				</g>
				<g>
					<path class="st3" d="M40.2,27.6c-0.2,0.2-0.6,0.2-0.9,0.1l-6.8-3.4c-0.2-0.1-0.4-0.2-0.4-0.2s0,0-0.1-0.1c0,0,0-0.1,0-0.1
						c0.1,0,0.3-0.2,0.5-0.4l6.2-4.2c0.2-0.2,0.6-0.2,0.9-0.1l7,3.4C46.9,22.9,47,23,47,23s-0.1,0.1-0.1,0.1c0,0,0,0.1-0.1,0.1
						c0,0-0.3,0.1-0.5,0.2L40.2,27.6z M32.9,23.7c-0.2,0.2-0.2,0.4,0,0.5l6.3,3.1c0.2,0.1,0.6,0.1,0.9-0.1l5.9-3.9
						c0.2-0.2,0.2-0.4,0-0.5l-6.3-3.1c-0.2-0.1-0.6-0.1-0.9,0.1L32.9,23.7z"/>
				</g>
			</g>
			<g>
				<g>
					<path class="st2" d="M39.7,27.7c0,0-0.2-0.1-0.4-0.2l-6.6-3.3c-0.2-0.1-0.4,0-0.4,0.3l0.5,7.4c0,0.3,0,0.5,0,0.5
						c0,0,0.2,0.1,0.4,0.2l6.6,3.3c0.2,0.1,0.4,0,0.4-0.3l-0.5-7.4C39.7,27.9,39.7,27.7,39.7,27.7z"/>
				</g>
				<g>
					<path class="st3" d="M40.4,35.8c0,0.3-0.2,0.4-0.4,0.3l-7.1-3.5c-0.2-0.1-0.4-0.2-0.4-0.3c0,0,0.1-0.3,0-0.6l-0.5-7.5
						c0-0.3,0.2-0.4,0.4-0.3l7.1,3.5c0.2,0.1,0.4,0.2,0.4,0.3c0,0-0.1,0.3,0,0.6L40.4,35.8z M32.9,31.8c0,0.3,0.2,0.6,0.5,0.7
						l6.3,3.1c0.2,0.1,0.4,0,0.4-0.3l-0.4-7c0-0.3-0.2-0.6-0.5-0.7l-6.3-3.1c-0.2-0.1-0.4,0-0.4,0.3L32.9,31.8z"/>
				</g>
			</g>
			<g>
				<g>
					<path class="st6" d="M46.8,23.5c0-0.3,0-0.5,0-0.5c0,0-0.2,0.1-0.4,0.3l-6.2,4.1c-0.2,0.2-0.4,0.3-0.4,0.3s0,0.2,0,0.5l0.5,7.4
						c0,0.3,0,0.5,0,0.5c0,0,0.2-0.1,0.4-0.3l6.2-4.1c0.2-0.2,0.4-0.3,0.4-0.3c0,0,0-0.2,0-0.5L46.8,23.5z"/>
				</g>
				<g>
					<path class="st3" d="M40.7,36c-0.2,0.2-0.5,0.3-0.5,0.2c0,0-0.1-0.3-0.1-0.5l-0.5-7.4c0-0.3-0.1-0.5-0.1-0.5c0,0,0-0.1,0-0.1
						c0.1,0,0.3-0.2,0.5-0.4l6.2-4.2c0.2-0.2,0.5-0.3,0.5-0.2c0,0,0.1,0.1,0.1,0.1c0,0,0,0.3,0,0.5l0.5,7.3c0,0.3,0.1,0.5,0.1,0.5
						c0,0,0,0.1,0,0.1s-0.3,0.2-0.5,0.4L40.7,36z M40.3,27.5c-0.2,0.2-0.4,0.5-0.4,0.8l0.5,7c0,0.3,0.2,0.4,0.4,0.2l5.9-3.9
						c0.2-0.2,0.4-0.5,0.4-0.8l-0.5-7c0-0.3-0.2-0.4-0.4-0.2L40.3,27.5z"/>
				</g>
			</g>
			<g>
				<g>
					<path class="st6" d="M40.3,36.1C40.3,36.1,40.3,36.1,40.3,36.1C40.3,36.1,40.3,36.1,40.3,36.1C40.3,36.1,40.3,36.1,40.3,36.1
						C40.3,36.1,40.3,36.1,40.3,36.1C40.3,36.1,40.3,36.1,40.3,36.1z"/>
				</g>
				<g>
					<path class="st3" d="M40.3,36.3c0,0-0.1,0-0.1,0c0,0-0.1-0.1-0.1-0.2c0-0.1,0.1-0.2,0.1-0.1s0.2,0.1,0.2,0.2
						C40.4,36.1,40.4,36.2,40.3,36.3C40.4,36.2,40.3,36.3,40.3,36.3z"/>
				</g>
			</g>
			<g>
				<g>
					<path class="st6" d="M39.7,27.7C39.7,27.7,39.7,27.7,39.7,27.7c0,0,0,0.2,0,0.5l0.5,7.4c0,0.3,0,0.5,0,0.5c0,0,0-0.2,0-0.5
						l-0.5-7.4C39.8,27.9,39.7,27.7,39.7,27.7z"/>
				</g>
				<g>
					<path class="st3" d="M40.4,35.8c0,0.3,0,0.5-0.1,0.4c-0.1,0-0.2-0.3-0.2-0.6l-0.5-7.5c0-0.3,0-0.5,0-0.5s0.1,0,0.2,0
						c0,0,0.1,0.1,0.1,0.1s0,0.3,0,0.5L40.4,35.8z"/>
				</g>
			</g>
		</g>
	</g>
	<text transform="matrix(1 0 0 1 58.1205 25.1684)" class="st7 st8 st9 st10">3D DIGITAL</text>
	<text transform="matrix(1.0618 0 0 1 59.2289 37.5366)" class="st4 st8 st11">Data Decisions Deliver</text>
</g>
</svg>
